PathFileType	4	(X/Y/Z)	s03c0403.trc
DataRate	CameraRate	NumFrames	NumMarkers	Units	OrigDataRate	OrigDataStartFrame	OrigNumFrames
200	200	4	52	mm	200	500	2000
Frame#	Time	racr			lacr			c7			jug			rlel			rdr			llel			ldr			s2			lic			ric			lasi			rasi			rpsi			lpsi			rgt			lgt			rth1			rth2			rth3			rth4			rlfc			rmfc			rsh1			rsh2			rsh3			rsh4			rlmal			rmmal			rcal			rtoe			rmt5			rmt1			lth1			lth2			lth4			lth3			llfc			lmfc			lsh1			lsh2			lsh3			lsh4			llmal			lmmal			lcal			ltoe			lmt1			lmt5			SBIKE			LBIKE			RBIKE			
		X1	Y1	Z1	X2	Y2	Z2	X3	Y3	Z3	X4	Y4	Z4	X5	Y5	Z5	X6	Y6	Z6	X7	Y7	Z7	X8	Y8	Z8	X9	Y9	Z9	X10	Y10	Z10	X11	Y11	Z11	X12	Y12	Z12	X13	Y13	Z13	X14	Y14	Z14	X15	Y15	Z15	X16	Y16	Z16	X17	Y17	Z17	X18	Y18	Z18	X19	Y19	Z19	X20	Y20	Z20	X21	Y21	Z21	X22	Y22	Z22	X23	Y23	Z23	X24	Y24	Z24	X25	Y25	Z25	X26	Y26	Z26	X27	Y27	Z27	X28	Y28	Z28	X29	Y29	Z29	X30	Y30	Z30	X31	Y31	Z31	X32	Y32	Z32	X33	Y33	Z33	X34	Y34	Z34	X35	Y35	Z35	X36	Y36	Z36	X37	Y37	Z37	X38	Y38	Z38	X39	Y39	Z39	X40	Y40	Z40	X41	Y41	Z41	X42	Y42	Z42	X43	Y43	Z43	X44	Y44	Z44	X45	Y45	Z45	X46	Y46	Z46	X47	Y47	Z47	X48	Y48	Z48	X49	Y49	Z49	X50	Y50	Z50	X51	Y51	Z51	X52	Y52	Z52	
500	2.5000	761.931682	1454.059489	46.535823	825.528059	1484.717792	-285.473178	734.232626	1564.052171	-126.953280	754.777040	1393.720186	-129.973912	615.927291	1199.357747	133.437532	743.567849	989.822600	-4.289203	703.717177	1257.113392	-433.017722	747.904338	967.247906	-434.627634	201.762542	1335.809450	-243.532547	406.451777	1329.107033	-401.924437	339.090651	1338.604096	-43.810468	397.359467	1250.338251	-366.558351	391.258623	1237.099486	-73.515659	231.008333	1383.127179	-201.433042	247.091758	1375.795712	-281.437861	296.176696	1247.301313	-39.340631	308.507384	1216.718635	-431.709011	365.116836	1091.349231	-25.664344	428.736877	1029.500333	-30.270718	455.138686	948.709375	-43.229938	458.820898	1049.459018	-38.354307	506.092867	831.222264	-76.139217	503.241979	818.999596	-193.391103	435.646564	677.955347	-48.279607	417.671230	591.744268	-62.579074	358.856541	525.531696	-61.486131	442.701342	581.869867	-90.967126	289.890426	411.886452	-75.959594	310.697034	419.164307	-166.588525	220.486944	364.920894	-111.532220	532.781356	349.668318	-116.945937	414.451606	343.020485	-44.040528	437.594568	353.093197	-159.273271	358.541427	1073.553976	-457.672591	403.121658	999.051180	-464.082762	437.067419	1008.504116	-455.744381	404.206297	910.186826	-468.476044	439.151299	781.930593	-461.762628	442.283485	761.779487	-339.197547	298.691703	673.037198	-478.993654	257.603275	600.030892	-458.032766	179.806705	555.362907	-447.274287	283.097707	578.820044	-439.120460	88.741789	471.164620	-425.126005	126.810966	462.743338	-338.813354	20.580387	492.350185	-377.143431	197.155664	241.210851	-349.904516	134.780972	315.855541	-316.413526	108.714644	314.957697	-431.531578	-213.053469	945.823838	-231.603316	-9.236174	81.041165	-433.348177	-9.154293	80.655088	-32.923914	
501	2.5050	762.125763	1453.510097	46.303014	824.708573	1484.380052	-284.545542	734.119638	1563.660231	-127.124934	754.874017	1393.317389	-130.224253	615.643267	1199.138531	133.392617	743.550363	989.800016	-4.297307	703.489196	1257.092956	-433.231350	747.987575	967.262187	-434.747160	202.027203	1334.365646	-243.431307	406.524325	1328.343965	-402.005019	339.523868	1337.312061	-43.704540	397.652203	1249.477954	-366.646871	391.718870	1236.122126	-73.556006	231.284388	1381.649496	-200.989901	247.134108	1374.556588	-281.213353	296.550894	1245.831437	-39.328307	309.082981	1215.968530	-431.850226	365.238843	1089.788719	-25.580063	428.670014	1027.785244	-30.063808	454.889532	946.948361	-42.986593	458.829843	1047.645639	-38.118570	505.573796	829.315197	-75.839680	502.943554	817.268031	-193.247453	435.475715	675.864426	-47.854716	417.744273	589.643585	-62.074019	359.023563	523.251607	-60.936394	442.721054	579.781848	-90.513945	290.432296	409.168298	-75.766400	310.651201	416.798499	-166.006217	220.681581	362.640640	-110.629609	532.990642	346.638810	-117.136794	414.833929	340.340498	-43.796821	437.623610	350.328858	-159.197039	360.165401	1073.289693	-457.800160	405.230781	998.997583	-464.195374	439.114406	1008.677564	-455.738204	406.812286	910.237202	-468.839543	442.319445	782.087755	-462.384337	445.991036	761.810890	-339.886455	301.136808	674.038947	-479.299057	259.465385	601.478867	-458.131337	181.345659	557.438697	-447.252498	284.800170	580.054493	-439.102824	89.607435	473.946881	-424.954187	127.505591	465.298996	-338.642881	21.485064	495.416667	-376.926451	196.948521	243.418925	-349.953579	134.891665	318.279967	-316.367356	108.897474	317.635431	-431.380246	-213.046139	945.820597	-231.580267	-9.236779	81.054936	-433.344186	-9.138436	80.638768	-32.923065	
502	2.5100	762.256248	1453.022013	46.042036	824.459607	1484.368808	-284.786298	733.992705	1563.232341	-127.304525	754.954413	1392.825842	-130.634468	615.289829	1198.942950	133.261949	743.550903	989.783208	-4.292409	703.272368	1257.099247	-433.429953	748.000497	967.287975	-434.838693	202.287379	1332.876006	-243.433375	406.569992	1327.579025	-402.042962	339.861094	1336.019101	-43.655677	397.921245	1248.708809	-366.787595	392.167809	1235.143957	-73.606315	231.538469	1380.151031	-200.646223	247.109209	1373.259403	-280.935264	296.902772	1244.384198	-39.308887	309.714568	1215.202012	-432.110130	365.394851	1088.084127	-25.516704	428.601928	1026.068853	-29.851495	454.627367	945.174854	-42.732912	458.804458	1045.900214	-37.871882	505.074101	827.419004	-75.506949	502.647704	815.373240	-192.938808	435.336059	673.782164	-47.398883	417.799673	587.511002	-61.566101	359.184864	521.022418	-60.363117	442.744458	577.676751	-90.083167	290.790273	406.765129	-75.240856	309.245366	414.555873	-166.039575	220.986865	360.507493	-109.856820	533.178850	343.518015	-117.328759	415.216624	337.396767	-43.578592	437.815155	347.658884	-158.909229	361.757747	1072.921066	-457.860540	407.308362	998.950898	-464.289994	441.074104	1008.776122	-455.732089	409.437907	910.195104	-469.243657	445.446999	782.212036	-462.963997	448.770288	761.844320	-340.263033	303.651937	675.020319	-479.659088	261.439125	602.843091	-458.255172	182.923745	559.457686	-447.267477	286.586927	581.359357	-439.326747	90.505183	476.723537	-424.741289	128.246505	467.890197	-338.529464	22.389154	498.429345	-376.737619	196.799025	245.996395	-350.371581	135.120470	320.718756	-316.330670	109.129730	320.319760	-431.260419	-213.024054	945.832644	-231.553361	-9.236900	81.064921	-433.304676	-9.136733	80.635356	-32.909304	
503	2.5150	762.348500	1452.583190	45.789733	824.192907	1484.375922	-285.052608	733.839465	1562.879909	-127.529577	754.975149	1392.442695	-130.980788	614.972687	1198.743944	133.146341	743.530093	989.742907	-4.246888	703.009936	1257.078146	-433.634778	748.014071	967.329728	-434.909784	202.492692	1331.414226	-243.877893	406.608953	1326.734550	-402.121639	340.177430	1334.572538	-43.595814	398.185053	1247.747662	-366.894652	392.605193	1234.165222	-73.666779	231.805752	1378.583924	-200.434941	247.106106	1372.016902	-280.816812	297.248822	1242.872059	-39.300003	310.272566	1214.340599	-432.232691	365.472442	1086.574881	-25.417043	428.528489	1024.408201	-29.629483	454.366744	943.447216	-42.419217	458.846536	1044.159563	-37.623614	504.552770	825.529639	-75.095628	502.320452	813.441549	-192.523281	435.210686	671.666297	-46.939896	417.823658	585.288735	-61.109069	359.357781	518.733278	-59.815694	442.805276	575.593753	-89.635844	291.143950	404.270638	-74.764832	309.395899	412.058457	-165.407686	221.258157	358.319251	-109.276624	533.361039	340.327696	-117.282472	415.446233	334.496821	-43.361237	437.909285	344.749827	-158.773708	363.277603	1072.522464	-457.977614	409.331494	998.888611	-464.477294	443.009953	1008.864465	-455.808408	412.014931	910.138324	-469.612214	448.677588	782.369985	-463.506979	451.825238	761.981781	-340.699810	306.217741	675.989629	-479.936440	263.587521	604.754651	-459.370237	184.550772	561.519527	-447.297783	288.249083	582.419115	-439.413727	91.516756	479.597654	-424.569870	129.008787	470.457352	-338.423756	23.399968	501.483014	-376.516050	196.681435	248.242945	-350.415657	135.369778	323.187655	-316.355020	109.395823	323.021195	-431.162364	-213.010153	945.842646	-231.498698	-9.226782	81.063477	-433.339782	-9.131386	80.637343	-32.906940	
